<svg width="256" height="256" viewBox="0 0 256 256" fill="none" xmlns="http://www.w3.org/2000/svg" role="img" aria-label="PDM - Pusat Data Madsuka">
  <defs>
    <linearGradient id="bg" x1="34" y1="28" x2="222" y2="228" gradientUnits="userSpaceOnUse">
      <stop stop-color="#0F172A"/>
      <stop offset="0.55" stop-color="#115E59"/>
      <stop offset="1" stop-color="#16A34A"/>
    </linearGradient>
    <linearGradient id="book" x1="84" y1="92" x2="172" y2="164" gradientUnits="userSpaceOnUse">
      <stop stop-color="#FFFFFF"/>
      <stop offset="1" stop-color="#DCFCE7"/>
    </linearGradient>
  </defs>

  <rect x="18" y="18" width="220" height="220" rx="56" fill="url(#bg)"/>
  <circle cx="84" cy="78" r="24" fill="#FFFFFF" fill-opacity="0.08"/>
  <circle cx="182" cy="178" r="32" fill="#FFFFFF" fill-opacity="0.06"/>
  <circle cx="128" cy="128" r="86" stroke="#FFFFFF" stroke-opacity="0.12" stroke-width="2"/>

  <path d="M78 94C78 86.268 84.268 80 92 80H127.5C132.747 80 136.5 84.2487 136.5 89.5V168.5C136.5 163.248 132.747 159 127.5 159H92C84.268 159 78 152.732 78 145V94Z" fill="url(#book)"/>
  <path d="M92 80H127.5C132.747 80 136.5 84.2487 136.5 89.5V159C136.5 162.866 133.366 166 129.5 166H92C84.268 166 78 159.732 78 152V94C78 86.268 84.268 80 92 80Z" fill="#FFFFFF" fill-opacity="0.92"/>
  <path d="M94 88H126" stroke="#0F766E" stroke-width="5" stroke-linecap="round"/>
  <path d="M94 100H122" stroke="#0F766E" stroke-width="5" stroke-linecap="round"/>
  <path d="M94 112H118" stroke="#16A34A" stroke-width="5" stroke-linecap="round"/>
  <path d="M94 124H120" stroke="#0F766E" stroke-width="5" stroke-linecap="round"/>
  <path d="M94 136H116" stroke="#16A34A" stroke-width="5" stroke-linecap="round"/>

  <path d="M136.5 89.5C136.5 84.2487 140.253 80 145.5 80H164C171.732 80 178 86.268 178 94V145C178 152.732 171.732 159 164 159H127.5C132.747 159 136.5 154.752 136.5 149.5V89.5Z" fill="#FFFFFF" fill-opacity="0.84"/>
  <path d="M146 88H162" stroke="#0F766E" stroke-width="5" stroke-linecap="round"/>
  <path d="M146 100H160" stroke="#0F766E" stroke-width="5" stroke-linecap="round"/>
  <path d="M146 112H158" stroke="#16A34A" stroke-width="5" stroke-linecap="round"/>
  <path d="M146 124H160" stroke="#0F766E" stroke-width="5" stroke-linecap="round"/>
  <path d="M146 136H156" stroke="#16A34A" stroke-width="5" stroke-linecap="round"/>

  <path d="M128 70L132.2 77.2L140.4 78.6L134.2 84.4L135.6 92.6L128 88.7L120.4 92.6L121.8 84.4L115.6 78.6L123.8 77.2L128 70Z" fill="#FDE68A"/>
</svg>
